<svg version="1.0" xmlns="http://www.w3.org/2000/svg" class="h-6 w-6" viewBox="0 0 512 512" fill="currentColor">
            <path d="M246.2 26.7c-6.6 3.2-11.2 11-11.2 18.8.1 4.7 3.3 10.8 7.9 14.7l4.1 3.5v30.1l-3.7.6c-2.1.3-6.5.8-9.8 1.1-42 4.2-85.4 26.9-114.7 60C72.3 208.1 60 283.1 87.4 347.2c13.5 31.7 32.1 54.6 63.5 78.5.3.2-4.3 5.2-10.1 11.1-5.8 5.9-11.1 11.7-11.7 12.9-1.8 3.4-1.3 10.4.9 14.1 3.8 6.2 13.2 9.2 19.3 6.1 1.2-.6 8.3-7.2 15.8-14.6l13.6-13.5 8.9 3.5c23 9.2 42.5 12.9 67.9 12.9 25.4 0 44.8-3.7 67.2-12.7l8.7-3.5 13.7 13.5c7.5 7.4 14.9 13.9 16.3 14.5 12.9 4.9 25-6.9 20.2-19.5-1.3-3.3-4.3-6.8-11.7-13.6-5.4-5-9.9-9.6-9.9-10.3.1-.6 2.9-3.2 6.3-5.8 33.9-25.5 58.8-65.1 67.5-107.3 10-48.4.3-97.7-27.3-139-24.7-36.9-63.8-64.3-107-75-8.3-2-13.4-2.8-32.2-5.1l-4.3-.5V78.5c0-14.3.1-15.4 1.9-16 1.1-.3 3.5-2.3 5.4-4.4 8.6-9.5 6.2-24.6-4.8-30.8-4.9-2.8-14.3-3.1-19.3-.6zm37.3 112.1c45.4 9.8 82.4 40.1 100.7 82.3 7.8 18.2 12.7 45 11.3 62.3-2.9 35.8-15.6 65-38.8 89.3-11.3 11.8-22.9 20.5-36.7 27.7-20.7 10.7-41 15.7-64.4 15.7-37.8 0-70.5-13.3-97.6-39.7-21.2-20.6-33.9-43.6-40.2-72.4-2.8-12.9-3.1-40.4-.5-53.3 12-59.6 57.5-103.4 117.6-113.2 11.8-2 36.6-1.3 48.6 1.3z"/><path d="M246.9 176.7c-5.9 5-5.9 4.6-5.9 57.5 0 53.8-.1 52.8 6.9 57.5 3.4 2.3 3.7 2.3 37 2.3 31.8 0 33.8-.1 36.9-2 6.6-4 8.9-11.6 5.6-18.5-3.2-6.7-4.1-6.9-32.4-7.5l-25.5-.5-.5-42.3-.5-42.4-3.7-3.4c-3.3-3-4.4-3.4-9.2-3.4-4.5 0-6 .5-8.7 2.7zM127 34.6c-27.3 2.7-48.3 12.5-65.6 30.6-34.6 36.2-36.9 92.9-5.2 130.9l5 6.1 7.3-14.8c11.7-23.8 24.2-41.1 42.6-58.9 27.2-26.2 61.6-44.8 98.2-52.9 1.5-.4 2.7-1 2.7-1.5 0-1.8-13.3-15.1-19.9-20-11.7-8.7-27.9-15.8-40.9-18-7-1.2-19.5-1.9-24.2-1.5zM367.3 35.1c-14.6 1.4-28.9 6.3-42 14.5-7.6 4.7-21.5 17.1-25.4 22.5l-1.9 2.7 9.3 2.2c59.5 14.5 113.8 60.3 137.7 116 1.8 4.1 3.6 7.9 4 8.3 1.3 1.4 12.7-14.2 17.5-23.8 7-14.1 9.8-26.1 9.9-43 .1-16.1-1.6-25.1-7.1-38.5-14-34.1-45.1-57.1-82.3-61-5.2-.5-9.9-.9-10.5-.8-.5 0-4.7.4-9.2.9z"/>
</svg>
