<svg version="1.0" xmlns="http://www.w3.org/2000/svg" class="h-6 w-6" viewBox="0 0 480 480" fill="currentColor">
<path d="M226.1 1.5c-18.4 4-35.1 17.4-43.6 35-3 6.3-6.5 19.3-6.5 24.3 0 1.4-2.7 3.6-9.2 7.5-33.3 20-56.6 50.9-66.2 87.8-4 15.7-4.6 24.7-4.6 73.7 0 30.4-.4 47.9-1.1 51-1.9 8.1-9.4 22.3-17.5 33.2-13.9 18.8-43.9 46.7-68.7 64l-7.9 5.5 36.3.3 36.4.2-20.8 20.8L32 425.5l11.3 11.3L54.5 448l196.8-196.8L448 54.5l-11.3-11.3L425.5 32l-35.9 35.9-35.9 35.9-10.1-10.6c-10.5-10.9-21-19.4-32.5-26.2l-6.7-3.9-1.2-7.5c-2.4-15.6-7.8-26.1-18.9-37.3-15.1-15-37-21.3-58.2-16.8zM254.9 36c5.8 3.1 10.2 7.4 13 12.8 1.1 2.1 1.1 2.3-.6 1.8-3.8-1.1-19.1-2.6-27.3-2.6s-23.5 1.5-27.3 2.6c-1.7.6-1.8.4-.3-2.5 3.3-6.2 11.3-12.5 19.6-15.2 1.4-.5 5.7-.7 9.6-.5 5.7.2 8.2.9 13.3 3.6zm7.6 46.4c15.3 3.3 31.8 10.7 43.6 19.6 7.2 5.4 23.9 22.4 23.9 24.3 0 .7-50.5 51.7-112.2 113.4L105.5 352H87.8l3.1-3.8c15.8-18.8 24.7-32.5 30.6-46.6 6.2-15 6.5-18.3 6.5-70.3 0-50.7.6-58.8 5.4-73.6 13.4-40.6 48.2-69.9 91.1-76.7 8.2-1.2 29.5-.5 38 1.4zM366.2 181.3 352 195.5v41.3c0 46.1.4 50 6.7 65.2 5.7 13.8 14.6 27.4 30.4 46.2l3.1 3.8H195.5L178 369.5 160.5 387v12.8c0 22.7 7.5 41.2 23 56.7 15.4 15.4 34 23 56.5 23 17.4 0 29.7-3.6 43.3-12.5 17.5-11.3 28.7-27.2 34.5-48.5 1.7-6.3 2.3-25.3 1-31.2l-.7-3.3 80.5-.2 80.6-.3-8.3-5.9c-36.2-25.8-66.2-56.1-78.8-79.7-7.9-14.8-7.5-11.3-8.3-70.4-.6-49.8-1.1-60.5-2.7-60.5-.3 0-7 6.4-14.9 14.3zm-79.3 210.5c6.3 31-21.7 60.1-53.3 55.5-29.5-4.2-48.7-34.8-39.1-62.1.4-1 10-1.2 45.7-1l45.3.3 1.4 7.3z"/></svg>
